<svg xmlns="http://www.w3.org/2000/svg" viewBox="0 0 1440 320">
    <path fill="#0099ff" fill-opacity="1" d="M0,160L26.7,176C53.3,192,107,224,160,213.3C213.3,203,267,149,320,138.7C373.3,128,427,160,480,192C533.3,224,587,256,640,256C693.3,256,747,224,800,186.7C853.3,149,907,107,960,96C1013.3,85,1067,107,1120,128C1173.3,149,1227,171,1280,170.7C1333.3,171,1387,149,1413,138.7L1440,128L1440,320L1413.3,320C1386.7,320,1333,320,1280,320C1226.7,320,1173,320,1120,320C1066.7,320,1013,320,960,320C906.7,320,853,320,800,320C746.7,320,693,320,640,320C586.7,320,533,320,480,320C426.7,320,373,320,320,320C266.7,320,213,320,160,320C106.7,320,53,320,27,320L0,320Z"></path>
</svg>